#!OML:ASF H:\MichaelJackson\Top Level 1\Subject 1\Session 1\male.ASF
:FULLY-SPECIFIED
:DEGREES
913
root 8.91009 18.0754 31.0725 -172.909 -191.741 -181.436
lowerback -2.84519 1.7184 1.50484
upperback 1.98288 2.20849 0.561329
thorax 3.67037 1.1299 -0.132102
lowerneck -12.7708 -2.58258 1.63435
upperneck 14.4448 -3.49437 -1.97899
head 6.42716 -1.75938 -1.21922
rclavicle -1.89342e-014 5.76476e-015
rhumerus -62.3924 33.8065 -49.8229
rradius 50.803
rwrist 17.171
rhand 10.2979 -17.4439
rfingers 7.12502
rthumb 35.4089 -403.904
lclavicle -1.89342e-014 5.76476e-015
lhumerus -52.5283 -42.8392 46.1827
lradius 80.1978
lwrist 43.4308
lhand 24.3612 39.1907
lfingers 7.12502
lthumb 48.574 61.1312
rfemur -26.3061 12.9379 16.1707
rtibia 51.5961
rfoot 10.3505 -1.56229
rtoes 28.7697
lfemur -26.2789 -13.0129 -11.8477
ltibia 51.0801
lfoot 3.08859 0.401882
ltoes 29.3545
914
root 8.90151 18.0166 31.0721 -172.845 -191.856 -181.455
lowerback -3.01704 1.71692 1.52367
upperback 1.82746 2.20398 0.556606
thorax 3.60753 1.12712 -0.145383
lowerneck -12.2287 -2.64886 1.64416
upperneck 13.7208 -3.5857 -1.95378
head 6.10258 -1.80442 -1.20074
rclavicle 3.99806e-014 2.36554e-014
rhumerus -62.3069 32.4266 -50.8813
rradius 51.2079
rwrist 16.8888
rhand 5.30465 -18.1263
rfingers 7.12502
rthumb 30.6605 -405.592
lclavicle 3.99806e-014 2.36554e-014
lhumerus -53.8141 -41.8944 48.9731
lradius 80.9822
lwrist 43.5734
lhand 18.2092 37.4417
lfingers 7.12502
lthumb 42.8634 61.7357
rfemur -25.5087 11.3146 17.1784
rtibia 52.0004
rfoot 8.07079 -1.75005
rtoes 26.933
lfemur -25.3634 -10.9054 -13.1754
ltibia 50.0908
lfoot 1.60448 0.198381
ltoes 26.3274
915
root 8.89393 17.9477 31.0732 -172.768 -192.007 -181.445
lowerback -3.21624 1.70504 1.54187
upperback 1.65573 2.18585 0.531807
thorax 3.54383 1.11767 -0.17927
lowerneck -11.6932 -2.71215 1.64645
upperneck 13.0701 -3.67233 -1.91854
head 5.80481 -1.84648 -1.17831
rclavicle -1.48592e-014 -2.78299e-015
rhumerus -62.214 30.9949 -51.9639
rradius 51.627
rwrist 16.1596
rhand 0.786715 -18.8529
rfingers 7.12502
rthumb 26.3437 -407.043
lclavicle -1.48592e-014 -2.78299e-015
lhumerus -55.0894 -40.9325 51.8872
lradius 81.5601
lwrist 43.2947
lhand 12.4688 35.6376
lfingers 7.12502
lthumb 37.464 61.5807
rfemur -24.6865 9.62304 18.0939
rtibia 52.3099
rfoot 6.30797 -1.91072
rtoes 25.5664
lfemur -24.4482 -8.85241 -14.4304
ltibia 48.9464
lfoot 0.381435 0.241036
ltoes 22.9406
916
root 8.88782 17.8699 31.0747 -172.651 -192.212 -181.41
lowerback -3.45981 1.67363 1.5584
upperback 1.45638 2.14152 0.493877
thorax 3.47661 1.09509 -0.226627
lowerneck -11.1819 -2.76966 1.64602
upperneck 12.51 -3.75001 -1.88401
head 5.54156 -1.88402 -1.15639
rclavicle -8.52289e-015 0
rhumerus -62.1105 29.5287 -53.0367
rradius 52.0902
rwrist 15.0372
rhand -3.21389 -19.6074
rfingers 7.12502
rthumb 22.5087 -408.316
lclavicle -8.52289e-015 0
lhumerus -56.3333 -39.9062 54.8684
lradius 81.9165
lwrist 42.4654
lhand 7.3878 33.796
lfingers 7.12502
lthumb 32.6447 60.8705
rfemur -23.8686 7.84498 18.9044
rtibia 52.5288
rfoot 4.96007 -2.17026
rtoes 24.6095
lfemur -23.6042 -6.90934 -15.5898
ltibia 47.79
lfoot -0.917532 0.686675
ltoes 19.3328
917
root 8.88328 17.7845 31.0753 -172.474 -192.491 -181.361
lowerback -3.75275 1.61997 1.57208
upperback 1.22981 2.0669 0.455796
thorax 3.40837 1.05715 -0.273759
lowerneck -10.7228 -2.82641 1.60859
upperneck 12.0383 -3.82401 -1.82483
head 5.31726 -1.91942 -1.12248
rclavicle -6.02815e-014 -7.35503e-015
rhumerus -61.9859 28.026 -54.0589
rradius 52.6181
rwrist 13.5778
rhand -6.58783 -20.3232
rfingers 7.12502
rthumb 19.2672 -409.389
lclavicle -6.02815e-014 -7.35503e-015
lhumerus -57.4873 -38.7764 57.8489
lradius 82.0407
lwrist 41.0386
lhand 3.08935 31.9572
lfingers 7.12502
lthumb 28.5459 59.7981
rfemur -23.0708 5.9807 19.6141
rtibia 52.6525
rfoot 3.84851 -2.63361
rtoes 23.7959
lfemur -22.8967 -5.12768 -16.6306
ltibia 46.756
lfoot -2.54216 1.56433
ltoes 15.5337
918
root 8.87991 17.6936 31.0742 -172.238 -192.852 -181.315
lowerback -4.08892 1.5431 1.58314
upperback 0.982197 1.96039 0.430315
thorax 3.34146 1.003 -0.308186
lowerneck -10.2954 -2.88765 1.56081
upperneck 11.5946 -3.90234 -1.76828
head 5.1081 -1.9576 -1.08884
rclavicle 9.69075e-016 -1.78906e-015
rhumerus -61.8341 26.48 -55.0005
rradius 53.2249
rwrist 11.8457
rhand -9.31545 -20.968
rfingers 7.12502
rthumb 16.6428 -410.274
lclavicle 9.69075e-016 -1.78906e-015
lhumerus -58.5057 -37.5247 60.7687
lradius 81.9433
lwrist 39.0421
lhand -0.384372 30.1873
lfingers 7.12502
lthumb 25.2222 58.5404
rfemur -22.292 4.06057 20.2381
rtibia 52.667
rfoot 2.80276 -3.37967
rtoes 22.7028
lfemur -22.3696 -3.56994 -17.522
ltibia 45.9453
lfoot -4.60536 2.78351
ltoes 11.7508
